<svg width="60" height="60" viewBox="0 0 60 60" fill="none" xmlns="http://www.w3.org/2000/svg">
<g clip-path="url(#clip0_31_109)">
<path d="M42.4096 16.6606V2.72255C42.4096 2.0947 42.9186 1.58566 43.5465 1.58566C44.1743 1.58566 44.6833 2.0947 44.6833 2.72255V16.6606C44.6833 17.2884 44.1743 17.7975 43.5465 17.7975C42.9186 17.7975 42.4096 17.2884 42.4096 16.6606ZM39.2647 17.7975C39.8925 17.7975 40.4016 17.2884 40.4016 16.6606V2.72255C40.4016 2.0947 39.8925 1.58566 39.2647 1.58566C38.6368 1.58566 38.1278 2.0947 38.1278 2.72255V16.6606C38.1278 17.2884 38.6368 17.7975 39.2647 17.7975ZM16.3518 28.4144C16.3518 27.7866 15.8427 27.2775 15.2149 27.2775H1.13688C0.67701 27.2775 0.262475 27.5545 0.0865419 27.9793C-0.0893908 28.404 0.00781271 28.893 0.332961 29.2182L11.9316 40.8169C12.1536 41.0389 12.4445 41.1499 12.7355 41.1499C13.0265 41.1499 13.3174 41.0389 13.5394 40.8169C13.9835 40.373 13.9835 39.6532 13.5394 39.2093L3.8816 29.5514H15.2149C15.8427 29.5513 16.3518 29.0424 16.3518 28.4144ZM23.1452 35.7845V54.8052C23.1452 56.7953 21.526 58.4143 19.5359 58.4143C17.5459 58.4143 15.9269 56.7953 15.9269 54.8052V35.7845C15.9269 34.1916 16.9643 32.8362 18.399 32.3588V23.0386C14.0838 22.3538 10.7397 17.8246 10.7397 12.3569C10.7397 6.41756 14.6857 1.58566 19.5359 1.58566C24.3863 1.58566 28.3323 6.41756 28.3323 12.3569C28.3323 17.8246 24.9881 22.3538 20.6728 23.0386V32.3588C22.1078 32.836 23.1452 34.1913 23.1452 35.7845ZM19.5359 20.8544C23.1324 20.8544 26.0585 17.0424 26.0585 12.3569C26.0585 7.6714 23.1324 3.85943 19.5359 3.85943C15.9394 3.85943 13.0135 7.6714 13.0135 12.3569C13.0135 17.0424 15.9394 20.8544 19.5359 20.8544ZM20.8715 35.7845C20.8715 35.0483 20.2723 34.4493 19.5359 34.4493C18.7996 34.4493 18.2006 35.0483 18.2006 35.7845V54.8052C18.2006 55.5416 18.7996 56.1406 19.5359 56.1406C20.2723 56.1406 20.8715 55.5414 20.8715 54.8052V35.7845ZM59.9134 27.9794C59.7375 27.5546 59.323 27.2777 58.8631 27.2777H45.0514C44.4236 27.2777 43.9145 27.7867 43.9145 28.4145C43.9145 29.0424 44.4236 29.5514 45.0514 29.5514H56.1185L46.9266 38.7433C46.4826 39.1872 46.4826 39.907 46.9266 40.351C47.1487 40.5729 47.4396 40.6839 47.7305 40.6839C48.0215 40.6839 48.3124 40.5729 48.5344 40.351L59.667 29.2183C59.9923 28.8932 60.0894 28.4042 59.9134 27.9794ZM45.0149 35.7845V54.8052C45.0149 56.7953 43.3957 58.4143 41.4056 58.4143C39.4154 58.4143 37.7965 56.7953 37.7965 54.8052V35.7845C37.7965 34.1916 38.8341 32.8362 40.2687 32.3588V23.0431C36.6375 22.4932 33.8459 19.3509 33.8459 15.5686V2.72255C33.8459 2.0947 34.3549 1.58566 34.9827 1.58566C35.6106 1.58566 36.1196 2.0947 36.1196 2.72255V15.5686C36.1196 18.4778 38.4821 20.8456 41.3892 20.8546C41.4 20.8544 41.4111 20.8544 41.4219 20.8546C44.3291 20.8456 46.6916 18.4778 46.6916 15.5686V2.72255C46.6916 2.0947 47.2007 1.58566 47.8285 1.58566C48.4564 1.58566 48.9654 2.0947 48.9654 2.72255V15.5686C48.9654 19.3509 46.1736 22.4932 42.5424 23.0431V32.3588C43.9773 32.836 45.0149 34.1913 45.0149 35.7845ZM42.7411 35.7845C42.7411 35.0483 42.142 34.4493 41.4056 34.4493C40.6691 34.4493 40.0703 35.0483 40.0703 35.7845V54.8052C40.0703 55.5416 40.6693 56.1406 41.4056 56.1406C42.1421 56.1406 42.7411 55.5414 42.7411 54.8052V35.7845ZM34.4517 51.2179L30.0001 55.6698L26.6845 52.3542C26.2405 51.9102 25.5207 51.9102 25.0767 52.3542C24.6327 52.7981 24.6327 53.5179 25.0767 53.9619L29.1961 58.0812C29.4093 58.2944 29.6985 58.4142 30.0001 58.4142C30.3016 58.4142 30.5907 58.2944 30.804 58.0812L36.0594 52.8256C36.5033 52.3815 36.5033 51.6618 36.0592 51.2177C35.6154 50.7738 34.8956 50.7741 34.4517 51.2179ZM38.3351 28.4147C38.3351 27.7868 37.8261 27.2778 37.1982 27.2778H23.876C23.2481 27.2778 22.7391 27.7868 22.7391 28.4147C22.7391 29.0425 23.2481 29.5516 23.876 29.5516H37.1984C37.8261 29.5516 38.3351 29.0427 38.3351 28.4147Z" fill="#FFD74A"/>
</g>
<defs>
<clipPath id="clip0_31_109">
<rect width="60" height="60" fill="white"/>
</clipPath>
</defs>
</svg>
