<svg width="28" height="28" viewBox="0 0 28 28" fill="none" xmlns="http://www.w3.org/2000/svg">
<path d="M1.80552 11.2766C1.58763 12.0068 2.00304 12.7756 2.73338 12.9935C3.46373 13.2113 4.23242 12.7958 4.45032 12.0655L1.80552 11.2766ZM6.04961 8.99333C6.52288 8.39594 6.42226 7.52799 5.82485 7.05471C5.22746 6.58142 4.35951 6.68205 3.88623 7.27945L6.04961 8.99333ZM4.45032 15.6539C4.23242 14.9234 3.46373 14.5081 2.73338 14.726C2.00304 14.9439 1.58763 15.7126 1.80552 16.4429L4.45032 15.6539ZM3.88623 20.4399C4.35951 21.0374 5.22746 21.138 5.82485 20.6648C6.42226 20.1915 6.52288 19.3234 6.04961 18.7262L3.88623 20.4399ZM25.9158 16.4447C26.1336 15.7144 25.7182 14.9457 24.9879 14.7278C24.2576 14.51 23.4888 14.9253 23.271 15.6558L25.9158 16.4447ZM21.6716 18.728C21.1984 19.3253 21.299 20.1934 21.8965 20.6666C22.4937 21.1399 23.3619 21.0392 23.8351 20.4418L21.6716 18.728ZM23.271 12.0674C23.4888 12.7977 24.2576 13.2132 24.9879 12.9953C25.7182 12.7774 26.1336 12.0087 25.9158 11.2784L23.271 12.0674ZM23.8351 7.28129C23.3619 6.68389 22.4937 6.58326 21.8965 7.05655C21.299 7.52983 21.1984 8.39778 21.6716 8.99517L23.8351 7.28129ZM11.2766 25.9158C12.0068 26.1336 12.7756 25.7182 12.9935 24.9879C13.2113 24.2576 12.7958 23.4888 12.0655 23.271L11.2766 25.9158ZM8.99333 21.6716C8.39594 21.1984 7.52799 21.299 7.05471 21.8965C6.58142 22.4937 6.68205 23.3619 7.27945 23.8351L8.99333 21.6716ZM15.6539 23.271C14.9234 23.4888 14.5081 24.2576 14.726 24.9879C14.9439 25.7182 15.7126 26.1336 16.4429 25.9158L15.6539 23.271ZM20.4399 23.8351C21.0374 23.3619 21.138 22.4937 20.6648 21.8965C20.1915 21.299 19.3234 21.1984 18.7262 21.6716L20.4399 23.8351ZM16.4447 1.80552C15.7144 1.58763 14.9457 2.00304 14.7278 2.73338C14.51 3.46373 14.9253 4.23242 15.6558 4.45032L16.4447 1.80552ZM18.728 6.04961C19.3253 6.52288 20.1934 6.42226 20.6666 5.82485C21.1399 5.22746 21.0392 4.35951 20.4418 3.88623L18.728 6.04961ZM12.0674 4.45032C12.7977 4.23242 13.2132 3.46373 12.9953 2.73338C12.7774 2.00304 12.0087 1.58763 11.2784 1.80552L12.0674 4.45032ZM7.28129 3.88623C6.68389 4.35951 6.58326 5.22746 7.05655 5.82485C7.52983 6.42226 8.39778 6.52288 8.99517 6.04961L7.28129 3.88623ZM4.45032 12.0655C4.78339 10.9492 5.32616 9.90651 6.04961 8.99333L3.88623 7.27945C2.94501 8.46752 2.23886 9.82406 1.80552 11.2766L4.45032 12.0655ZM1.80552 16.4429C2.23886 17.8954 2.94501 19.2518 3.88623 20.4399L6.04961 18.7262C5.32616 17.813 4.78339 16.7702 4.45032 15.6539L1.80552 16.4429ZM23.271 15.6558C22.9379 16.7721 22.3951 17.8148 21.6716 18.728L23.8351 20.4418C24.7763 19.2537 25.4825 17.8972 25.9158 16.4447L23.271 15.6558ZM25.9158 11.2784C25.4825 9.8259 24.7763 8.46936 23.8351 7.28129L21.6716 8.99517C22.3951 9.90835 22.9379 10.9511 23.271 12.0674L25.9158 11.2784ZM12.0655 23.271C10.9492 22.9379 9.90649 22.3951 8.99333 21.6716L7.27945 23.8351C8.46752 24.7763 9.82406 25.4825 11.2766 25.9158L12.0655 23.271ZM16.4429 25.9158C17.8954 25.4825 19.2519 24.7763 20.4399 23.8351L18.7262 21.6716C17.813 22.3951 16.7702 22.9379 15.6539 23.271L16.4429 25.9158ZM15.6558 4.45032C16.7721 4.78339 17.8148 5.32616 18.728 6.04961L20.4418 3.88623C19.2537 2.94501 17.8972 2.23886 16.4447 1.80552L15.6558 4.45032ZM11.2784 1.80552C9.8259 2.23886 8.46936 2.94501 7.28129 3.88623L8.99517 6.04961C9.90833 5.32616 10.9511 4.78339 12.0674 4.45032L11.2784 1.80552Z" fill="#FFD74A"/>
<path fill-rule="evenodd" clip-rule="evenodd" d="M11.6711 24.5931C11.6531 23.7027 12.1758 22.8902 12.9933 22.5371C13.8108 22.184 14.7606 22.3608 15.3966 22.9844C16.0323 23.6078 16.2275 24.5541 15.8906 25.3784C15.5535 26.2025 14.7513 26.7409 13.8607 26.7404C12.6632 26.7516 11.6833 25.7906 11.6711 24.5931Z" stroke="#FFD74A" stroke-width="2" stroke-linecap="round" stroke-linejoin="round"/>
<path fill-rule="evenodd" clip-rule="evenodd" d="M16.7238 13.8606C16.7238 15.4417 15.4418 16.7236 13.8607 16.7236C12.2794 16.7236 10.9977 15.4417 10.9977 13.8606C10.9977 12.2793 12.2794 10.9976 13.8607 10.9976C15.4418 10.9976 16.7238 12.2793 16.7238 13.8606Z" stroke="#FFD74A" stroke-width="2" stroke-linecap="round" stroke-linejoin="round"/>
<path fill-rule="evenodd" clip-rule="evenodd" d="M24.5934 16.0501C23.703 16.0679 22.8902 15.5453 22.5373 14.7278C22.1842 13.9103 22.3611 12.9603 22.9845 12.3246C23.608 11.6889 24.5542 11.4935 25.3785 11.8306C26.2028 12.1677 26.7412 12.9699 26.7406 13.8605C26.7519 15.0577 25.7906 16.0379 24.5934 16.0501Z" stroke="#FFD74A" stroke-width="2" stroke-linecap="round" stroke-linejoin="round"/>
<path fill-rule="evenodd" clip-rule="evenodd" d="M16.0502 3.12794C16.0158 4.31303 15.0452 5.2559 13.8597 5.2559C12.674 5.2559 11.7034 4.31303 11.6692 3.12794C11.7034 1.94287 12.674 1 13.8597 1C15.0452 1 16.0158 1.94287 16.0502 3.12794Z" stroke="#FFD74A" stroke-width="2" stroke-linecap="round" stroke-linejoin="round"/>
<path fill-rule="evenodd" clip-rule="evenodd" d="M3.12794 11.6709C4.31303 11.7053 5.2559 12.6759 5.2559 13.8614C5.2559 15.0469 4.31303 16.0175 3.12794 16.0519C1.94287 16.0175 1 15.0469 1 13.8614C1 12.6759 1.94287 11.7053 3.12794 11.6709Z" stroke="#FFD74A" stroke-width="2" stroke-linecap="round" stroke-linejoin="round"/>
</svg>
