<svg width="28" height="28" viewBox="0 0 28 28" fill="none" xmlns="http://www.w3.org/2000/svg">
<path d="M27.9939 0.797862C27.9818 0.730973 27.9574 0.664027 27.9209 0.609284C27.9148 0.597138 27.9088 0.578891 27.9027 0.566687C27.8966 0.554541 27.8844 0.54844 27.8723 0.536294C27.848 0.5059 27.8176 0.475449 27.7872 0.451157C27.7628 0.432909 27.7385 0.414662 27.7142 0.396414C27.702 0.390313 27.6959 0.378166 27.6838 0.372065C27.6655 0.365963 27.6412 0.353817 27.6169 0.347716C27.5865 0.33557 27.556 0.323366 27.5257 0.317322C27.4892 0.31122 27.4527 0.305176 27.4162 0.305176C27.3858 0.305176 27.3553 0.305176 27.3249 0.305176C27.2823 0.311277 27.2398 0.323423 27.2033 0.33557C27.185 0.341671 27.1607 0.341671 27.1425 0.347716L0.366984 11.9229C0.056774 12.0567 -0.0831057 12.4156 0.0506724 12.7258C0.111517 12.8596 0.214901 12.9751 0.348736 13.036L10.3485 17.7378V27.0867C10.3485 27.4212 10.6222 27.695 10.9567 27.695C11.1696 27.695 11.3643 27.5855 11.4738 27.403L15.7011 20.5297L22.2338 23.9724C22.5318 24.1306 22.8968 24.015 23.0549 23.717C23.0793 23.6683 23.0975 23.6136 23.1097 23.5649L27.9879 1.04118C27.9879 1.02904 27.9879 1.01683 27.9879 1.00469C27.994 0.968193 27.994 0.937799 28 0.907348C28 0.870853 28 0.834358 27.9939 0.797862ZM10.835 16.6125L2.10051 12.5007L24.7033 2.74426L10.835 16.6125ZM11.5649 24.9274V18.3521L14.6244 19.964L11.5649 24.9274ZM22.0938 22.5187L16.3458 19.4957L15.3118 18.857L15.2692 18.93L11.9785 17.1965L26.3516 2.81121L22.0938 22.5187Z" fill="#FFD74A"/>
</svg>
