<svg width="31" height="30" viewBox="0 0 31 30" fill="none" xmlns="http://www.w3.org/2000/svg">
<path d="M5.95106 29.3448H3.58419C1.92309 29.3448 0.571823 27.9935 0.571823 26.3324V16.0258C0.571823 14.3647 1.92309 13.0134 3.58419 13.0134H5.95106C7.61217 13.0134 8.96343 14.3647 8.96343 16.0258V26.3324C8.96343 27.9935 7.61217 29.3448 5.95106 29.3448ZM3.5885 14.7348C2.87844 14.7348 2.29748 15.3157 2.29748 16.0258V26.3324C2.29748 27.0425 2.87844 27.6234 3.5885 27.6234H5.95536C6.66542 27.6234 7.24638 27.0425 7.24638 26.3324V16.0258C7.24638 15.3157 6.66542 14.7348 5.95536 14.7348H3.5885Z" fill="#7F92B3"/>
<path d="M27.8553 1.72131H25.4884C24.7784 1.72131 24.1974 2.30227 24.1974 3.01233V26.3324C24.1974 27.0424 24.7784 27.6234 25.4884 27.6234H27.8553C28.5654 27.6234 29.1463 27.0424 29.1463 26.3324V3.01233C29.1463 2.30227 28.5654 1.72131 27.8553 1.72131ZM16.9032 7.01448H14.5363C13.8263 7.01448 13.2453 7.59544 13.2453 8.3055V26.3324C13.2453 27.0424 13.8263 27.6234 14.5363 27.6234H16.9032C17.6132 27.6234 18.1942 27.0424 18.1942 26.3324V8.3055C18.1942 7.59544 17.6132 7.01448 16.9032 7.01448ZM5.95106 14.7175H3.58419C2.87414 14.7175 2.29318 15.2985 2.29318 16.0086V26.3324C2.29318 27.0424 2.87414 27.6234 3.58419 27.6234H5.95106C6.66112 27.6234 7.24208 27.0424 7.24208 26.3324V16.0086C7.24208 15.2985 6.66542 14.7175 5.95106 14.7175Z" fill="#E6E6E6"/>
<path d="M27.8553 0H25.4884C23.8273 0 22.4761 1.35126 22.4761 3.01237V11.9591C21.6885 11.589 20.8236 11.348 19.9156 11.2706V8.30984C19.9156 6.64874 18.5643 5.29747 16.9032 5.29747H14.5363C12.8752 5.29747 11.5239 6.64874 11.5239 8.30984V26.3367C11.5239 27.9978 12.8752 29.3491 14.5363 29.3491H16.9032C18.5471 29.3491 19.8854 28.028 19.9156 26.3927C20.8236 26.3152 21.6885 26.0742 22.4761 25.7041V26.3367C22.4761 27.9978 23.8273 29.3491 25.4884 29.3491H27.8553C29.5164 29.3491 30.8677 27.9978 30.8677 26.3367V3.01237C30.8677 1.35126 29.5121 0 27.8553 0ZM24.1974 15.6643C24.7827 16.5767 25.1227 17.6611 25.1227 18.8273C25.1227 19.9892 24.7827 21.0737 24.1974 21.9903V15.6643ZM13.3873 18.8273C13.3873 15.9527 15.4615 13.5557 18.1942 13.0565V24.5982C15.4615 24.099 13.3873 21.702 13.3873 18.8273ZM14.5363 7.01452H16.9032C17.6132 7.01452 18.1942 7.59548 18.1942 8.30554V11.3136C16.1888 11.5976 14.433 12.6649 13.2453 14.1969V8.30554C13.2453 7.59548 13.8263 7.01452 14.5363 7.01452ZM16.9032 27.6235H14.5363C13.8263 27.6235 13.2453 27.0425 13.2453 26.3324V23.4578C14.4287 24.9898 16.1845 26.0613 18.1942 26.341C18.1899 27.0511 17.6132 27.6235 16.9032 27.6235ZM19.9156 24.6584V12.9962C20.8537 13.0995 21.723 13.4266 22.4761 13.9258V23.7332C21.723 24.2281 20.8537 24.5551 19.9156 24.6584ZM24.1974 26.3324V25.6052L26.2028 27.6235H25.4884C24.7741 27.6235 24.1974 27.0468 24.1974 26.3324ZM29.1463 26.3324C29.1463 26.8187 28.8752 27.2448 28.475 27.4642L24.9118 23.8838C26.1124 22.5412 26.844 20.7682 26.844 18.8273C26.844 16.5293 25.8155 14.4637 24.1974 13.0737V3.01237C24.1974 2.30231 24.7784 1.72136 25.4884 1.72136H27.8553C28.5654 1.72136 29.1463 2.30231 29.1463 3.01237V26.3324Z" fill="#7F92B3"/>
<path d="M19.2572 12.9618C16.021 12.9618 13.3874 15.5955 13.3874 18.8316C13.3874 22.0678 16.021 24.6971 19.2572 24.6971C22.4933 24.6971 25.127 22.0635 25.127 18.8273C25.127 15.5912 22.4933 12.9618 19.2572 12.9618Z" fill="#FFD74A"/>
<path d="M19.2572 13.943C18.6547 13.943 18.0608 14.0506 17.5014 14.2657C17.2776 14.3518 17.17 14.6014 17.2561 14.8209C17.3422 15.0447 17.5918 15.1522 17.8112 15.0662C18.2717 14.8897 18.758 14.7994 19.2572 14.7994C21.4777 14.7994 23.2808 16.6068 23.2808 18.823C23.2808 19.6708 23.0183 20.4798 22.5278 21.1684C22.3384 21.4352 22.1146 21.6762 21.8607 21.8914C21.68 22.0463 21.6585 22.3174 21.8134 22.4981C21.8995 22.5971 22.02 22.6487 22.1405 22.6487C22.2394 22.6487 22.3384 22.6143 22.4202 22.5455C22.7214 22.2873 22.9968 21.9946 23.2292 21.6676C23.8274 20.8327 24.1458 19.8515 24.1458 18.8187C24.1415 16.1334 21.9511 13.943 19.2572 13.943Z" fill="#06F3FF"/>
</svg>
