<svg width="25" height="21" viewBox="0 0 25 21" fill="none" xmlns="http://www.w3.org/2000/svg">
<path d="M9.125 9.62497L11.202 11.625L15.875 7.125M22.625 19.5L18.8852 17.63C18.6017 17.4883 18.4599 17.4174 18.3113 17.3674C18.1794 17.3231 18.0437 17.2911 17.9059 17.2717C17.7506 17.25 17.5921 17.25 17.2752 17.25H5.975C4.71488 17.25 4.08482 17.25 3.60352 17.0047C3.18015 16.7891 2.83595 16.4448 2.62024 16.0215C2.375 15.5402 2.375 14.9101 2.375 13.65V5.1C2.375 3.83988 2.375 3.20982 2.62024 2.72852C2.83595 2.30515 3.18015 1.96095 3.60352 1.74524C4.08482 1.5 4.71489 1.5 5.975 1.5H19.025C20.2851 1.5 20.9152 1.5 21.3965 1.74524C21.8198 1.96095 22.1641 2.30515 22.3797 2.72852C22.625 3.20982 22.625 3.83989 22.625 5.1V19.5Z" stroke="#FFD74A" stroke-width="3" stroke-linecap="round" stroke-linejoin="round"/>
</svg>
