<svg width="23" height="23" viewBox="0 0 23 23" fill="none" xmlns="http://www.w3.org/2000/svg">
<path d="M5.875 9.25H17.125M5.875 13.75H11.5M5.875 1.375V3.625M17.125 1.375V3.625M4.975 21.625H18.025C19.2851 21.625 19.9152 21.625 20.3965 21.3797C20.8198 21.1641 21.1641 20.8198 21.3797 20.3965C21.625 19.9152 21.625 19.2851 21.625 18.025V7.225C21.625 5.96488 21.625 5.33482 21.3797 4.85352C21.1641 4.43015 20.8198 4.08595 20.3965 3.87024C19.9152 3.625 19.2851 3.625 18.025 3.625H4.975C3.71489 3.625 3.08482 3.625 2.60352 3.87024C2.18015 4.08595 1.83595 4.43015 1.62024 4.85352C1.375 5.33482 1.375 5.96488 1.375 7.225V18.025C1.375 19.2851 1.375 19.9152 1.62024 20.3965C1.83595 20.8198 2.18015 21.1641 2.60352 21.3797C3.08482 21.625 3.71488 21.625 4.975 21.625Z" stroke="#FFD74A" stroke-width="2" stroke-linecap="round" stroke-linejoin="round"/>
</svg>
