<svg width="34" height="34" viewBox="0 0 34 34" fill="none" xmlns="http://www.w3.org/2000/svg">
<g clip-path="url(#clip0_69_256)">
<path d="M33.8316 22.9017C33.6985 22.7416 33.5001 22.6509 33.2919 22.6509H23.574L23.3544 21.7712C23.2751 21.4554 22.9918 21.2344 22.6674 21.2344H21.2508C20.8598 21.2344 20.5425 21.5517 20.5425 21.9427C20.5425 22.3337 20.8598 22.651 21.2508 22.651H22.1135L23.8375 29.5413C24.0741 30.489 24.9226 31.1506 25.8987 31.1506H31.167H31.8753C32.2663 31.1506 32.5836 30.8332 32.5836 30.4423C32.5836 30.0513 32.2663 29.7339 31.8753 29.7339H25.8987C25.5729 29.7339 25.291 29.513 25.2117 29.1985L24.9907 28.3174H31.3837C32.4278 28.3174 33.3089 27.5708 33.4789 26.5424L33.9903 23.4754C34.0243 23.27 33.9662 23.0604 33.8316 22.9017ZM32.0821 26.31C32.0255 26.6514 31.7322 26.9007 31.3837 26.9007H24.6365L23.9282 24.0675H32.4561L32.0821 26.31Z" fill="#FFD74A"/>
<path d="M21.5697 27.3298L16.6116 24.8508C16.4133 24.7516 16.1782 24.7516 15.9784 24.8508L7.35847 29.1615L9.19862 19.9564C9.24398 19.7241 9.17173 19.4833 9.00453 19.3161L2.22758 12.5392L11.4369 11.3181C11.6692 11.2869 11.8717 11.1424 11.9766 10.9327L16.293 2.28019L20.6094 10.9327C20.7127 11.1424 20.9153 11.2869 21.1491 11.3181L30.3584 12.5392L23.5814 19.3162C23.3051 19.5924 23.3051 20.0415 23.5814 20.3177C23.8576 20.594 24.3067 20.594 24.5829 20.3177L32.3742 12.5265C32.5654 12.3352 32.6305 12.0534 32.5441 11.7984C32.4578 11.5434 32.2325 11.3593 31.9662 11.3238L21.7072 9.96386L16.9247 0.376282C16.6853 -0.103943 15.8963 -0.103943 15.6569 0.376282L10.8745 9.96379L0.615521 11.3237C0.347785 11.3591 0.123941 11.5433 0.0375505 11.7983C-0.0488397 12.0533 0.0163015 12.3352 0.207542 12.5264L7.73105 20.0499L5.68126 30.3019C5.62887 30.5682 5.73226 30.8402 5.94614 31.0045C6.07224 31.1008 6.22524 31.1504 6.37677 31.1504C6.48441 31.1504 6.59351 31.1249 6.69411 31.0753L16.293 26.2759L20.9366 28.5976C21.2865 28.7705 21.7114 28.6302 21.8871 28.2803C22.0613 27.9305 21.9197 27.5055 21.5697 27.3298Z" fill="#FFD74A"/>
<path d="M25.5006 31.1504C24.7186 31.1504 24.084 31.785 24.084 32.567C24.084 33.3489 24.7186 33.9835 25.5006 33.9835C26.2825 33.9835 26.9171 33.3489 26.9171 32.567C26.9171 31.785 26.2825 31.1504 25.5006 31.1504Z" fill="#FFD74A"/>
<path d="M29.7505 32.567C29.7505 33.3489 30.3851 33.9835 31.1671 33.9835C31.949 33.9835 32.5836 33.3489 32.5836 32.567C32.5836 31.785 31.949 31.1504 31.1671 31.1504C30.3851 31.1504 29.7505 31.785 29.7505 32.567Z" fill="#FFD74A"/>
</g>
<defs>
<clipPath id="clip0_69_256">
<rect width="34" height="34" fill="white"/>
</clipPath>
</defs>
</svg>
