<svg width="89" height="89" viewBox="0 0 89 89" fill="none" xmlns="http://www.w3.org/2000/svg">
<path d="M32.7676 32.962V31.6695C32.7676 25.2478 37.7154 20 43.8779 20C50.0404 20 54.9882 25.2478 54.9882 31.6695V32.9657H62.5728C63.0315 32.9662 63.4738 33.1369 63.8138 33.4448C64.1539 33.7527 64.3675 34.1758 64.4134 34.6322L67.7465 67.9631C67.7723 68.2205 67.744 68.4804 67.6633 68.7261C67.5826 68.9718 67.4513 69.1979 67.2779 69.3898C67.1045 69.5817 66.8929 69.7351 66.6565 69.8402C66.4202 69.9453 66.1645 69.9997 65.9059 70H21.8499C21.5913 69.9997 21.3355 69.9453 21.0992 69.8402C20.8629 69.7351 20.6512 69.5817 20.4778 69.3898C20.3044 69.1979 20.1732 68.9718 20.0925 68.7261C20.0118 68.4804 19.9834 68.2205 20.0093 67.9631L23.3424 34.6322C23.3882 34.1758 23.6019 33.7527 23.942 33.4448C24.282 33.1369 24.7242 32.9662 25.183 32.9657H32.7676V32.962ZM36.471 32.962H51.2847V31.6695C51.2847 27.2476 47.9443 23.7034 43.8779 23.7034C39.8115 23.7034 36.471 27.2476 36.471 31.6695V32.9657V32.962ZM32.7676 36.6654H26.8606L23.8979 66.2929H63.8579L60.8914 36.6654H54.9882V42.2206C54.9882 42.7117 54.7931 43.1827 54.4458 43.5299C54.0986 43.8772 53.6276 44.0723 53.1365 44.0723C52.6454 44.0723 52.1744 43.8772 51.8271 43.5299C51.4798 43.1827 51.2847 42.7117 51.2847 42.2206V36.6654H36.471V42.2206C36.471 42.7117 36.2759 43.1827 35.9287 43.5299C35.5814 43.8772 35.1104 44.0723 34.6193 44.0723C34.1282 44.0723 33.6572 43.8772 33.31 43.5299C32.9627 43.1827 32.7676 42.7117 32.7676 42.2206V36.6654Z" fill="#DCDCDC"/>
</svg>
