<svg width="60" height="58" viewBox="0 0 60 58" fill="none" xmlns="http://www.w3.org/2000/svg">
<path d="M33.8873 3.0342C26.5489 3.0342 19.9077 6.05994 15.1594 10.9222C15.0985 10.9142 15.0362 10.9102 14.9731 10.9102H2.83374V1.40888C2.83374 0.630825 2.19934 0 1.41687 0C0.634403 0 0 0.630825 0 1.40888V56.5911C0 57.3692 0.634403 58 1.41687 58C2.19934 58 2.83374 57.3692 2.83374 56.5911V47.0898H14.9731C15.0362 47.0898 15.0985 47.0858 15.1594 47.0778C19.9079 51.9401 26.5491 54.9658 33.8873 54.9658C48.2859 54.9658 60 43.3175 60 29.0002C60 14.6828 48.2859 3.0342 33.8873 3.0342ZM2.83374 44.2719V13.7279H12.78C9.63276 18.0167 7.77419 23.2962 7.77419 29C7.77419 34.7038 9.63277 39.9831 12.7802 44.2721H2.83374V44.2719ZM33.8873 52.1479C21.051 52.1479 10.6079 41.7637 10.6079 29C10.6079 16.2363 21.051 5.85213 33.8873 5.85213C46.7234 5.85213 57.1663 16.2363 57.1663 29C57.1663 41.7637 46.7234 52.1479 33.8873 52.1479ZM46.2592 19.9476H45.5492V19.1431C45.5492 18.3651 44.9148 17.7343 44.1323 17.7343H37.6296C36.8471 17.7343 36.2127 18.3651 36.2127 19.1431C36.2127 19.9212 36.8471 20.552 37.6296 20.552H42.7154V27.2364C42.7154 30.9224 39.6998 33.921 35.9931 33.921H31.494C27.7873 33.921 24.7717 30.9224 24.7717 27.2364V20.552H29.1103C28.4476 22.6808 28.727 25.1585 30.4298 26.738C31.002 27.2688 31.8985 27.2378 32.4323 26.6688C32.9661 26.1 32.935 25.2084 32.3627 24.6776C31.3073 23.6984 31.3858 21.437 32.5246 20.0239C34.3281 17.7859 34.7053 13.7774 32.3629 11.6042C31.7907 11.0729 30.8941 11.1041 30.3603 11.6731C29.8265 12.2419 29.8575 13.1336 30.4296 13.6644C31.3523 14.5206 31.4076 16.4201 30.6356 17.7855C30.5144 17.752 30.3869 17.7341 30.2551 17.7341H23.355C22.5725 17.7341 21.9381 18.3649 21.9381 19.143V27.2363C21.9381 32.4759 26.225 36.7386 31.4942 36.7386H35.9933C39.9819 36.7386 43.4076 34.2961 44.8372 30.8363H46.2594C48.8446 30.8363 50.9478 28.7448 50.9478 26.1741V24.6094C50.9476 22.0391 48.8445 19.9476 46.2592 19.9476ZM48.1139 26.1745C48.1139 27.1913 47.2818 28.0189 46.2592 28.0189H45.5492V22.7655H46.2592C47.2818 22.7655 48.1139 23.5929 48.1139 24.6099V26.1745ZM47.1222 41.3682C47.1222 42.1462 46.4878 42.7771 45.7054 42.7771H21.7821C20.9996 42.7771 20.3652 42.1462 20.3652 41.3682C20.3652 40.5901 20.9996 39.9593 21.7821 39.9593H45.7054C46.488 39.9593 47.1222 40.5901 47.1222 41.3682Z" fill="#FFD74A"/>
</svg>
