<svg width="33" height="23" viewBox="0 0 33 23" fill="none" xmlns="http://www.w3.org/2000/svg">
<path d="M8.10601 0.0888672L11.3197 3.30256L11.021 3.61284C11.2338 3.78474 11.4492 3.95244 11.6583 4.10133C11.9958 4.34239 12.3197 4.53575 12.5393 4.62643C12.5535 4.63275 12.6132 4.64951 12.7316 4.64899C12.9209 4.65105 13.2374 4.60284 13.6252 4.54367C14.0146 4.48496 14.4805 4.42108 15.0056 4.4205C15.4637 4.41896 15.9689 4.47452 16.5008 4.6207C17.0317 4.47503 17.5359 4.4205 17.9929 4.42108C18.5185 4.42108 18.9844 4.48502 19.3738 4.54425C19.7617 4.60342 20.0777 4.6517 20.2668 4.64957C20.3858 4.6506 20.445 4.63281 20.4571 4.62701C20.6914 4.53111 21.0447 4.31725 21.4083 4.05261C21.5964 3.91584 21.7882 3.76592 21.9785 3.61187L21.6803 3.30263L24.894 0.0889316L33 8.48466L29.7863 11.6984L28.8456 10.7241L26.7692 12.5363C26.7111 12.8838 26.6015 13.2118 26.4752 13.5232C26.3929 13.7213 26.3027 13.9121 26.2104 14.0913C26.4112 14.4236 26.5207 14.8031 26.5197 15.1877C26.5202 15.5693 26.4154 15.9592 26.2 16.3056C25.8725 16.8323 25.3478 17.1635 24.7813 17.2683C24.7781 17.6431 24.6743 18.0251 24.4632 18.3647C24.0622 19.0094 23.3683 19.3668 22.6608 19.3657C22.6336 19.3657 22.6058 19.3615 22.5786 19.3605C22.5429 19.6603 22.4444 19.959 22.2756 20.2305C21.8747 20.8751 21.1803 21.2325 20.4739 21.2314C20.4036 21.2314 20.3339 21.2241 20.2632 21.2172C20.2296 21.4872 20.14 21.7565 19.9885 21.9997C19.6232 22.5867 18.9912 22.9127 18.3482 22.9111C18.0012 22.9117 17.6459 22.8173 17.3304 22.6213L16.3671 22.0218C16.1773 22.1444 15.9783 22.2524 15.7692 22.3404C15.3797 22.5044 14.9589 22.605 14.5213 22.6056C14.0412 22.6077 13.5344 22.4761 13.0984 22.1695C12.8144 21.9715 12.5738 21.6999 12.3768 21.3798C12.3464 21.3808 12.3218 21.3861 12.2903 21.3866C12.0906 21.3866 11.8716 21.3567 11.6545 21.2891C11.436 21.2226 11.219 21.1229 10.9874 20.9904C10.435 20.6791 10.1038 20.2211 9.94286 19.8285C9.90722 19.7426 9.88157 19.6619 9.85849 19.5838C9.72482 19.5414 9.59694 19.4895 9.48118 19.4224C9.05405 19.1766 8.77574 18.803 8.60436 18.4277C8.43247 18.0487 8.35699 17.6552 8.35596 17.2768C8.35596 17.2396 8.36067 17.2034 8.36228 17.1668C8.08294 17.0525 7.83196 16.8937 7.6181 16.7066C7.39903 16.5147 7.21508 16.2915 7.07831 16.0368C6.94199 15.7832 6.85079 15.4928 6.85027 15.1748C6.84975 14.9677 6.89223 14.7497 6.98498 14.5453C7.01488 14.4803 7.05729 14.4206 7.09609 14.3603C6.93303 14.0684 6.767 13.7393 6.63074 13.384C6.52852 13.1151 6.44254 12.8332 6.3933 12.537L4.22832 10.6477L3.2137 11.6985L0 8.48466L8.10601 0.0888672ZM24.0575 15.6526L24.0948 15.6762C24.1917 15.736 24.2934 15.7627 24.3982 15.7632C24.5927 15.7622 24.7793 15.6673 24.8888 15.4907C24.9485 15.3938 24.9758 15.2916 24.9758 15.1878C24.9747 14.9923 24.8804 14.8067 24.7043 14.6972L23.4313 13.9064C23.3344 13.8461 23.2326 13.82 23.1289 13.8189C22.9335 13.8209 22.7479 13.9143 22.6378 14.0919L21.9822 13.6847L22.6378 14.0924C22.5781 14.1888 22.5514 14.2905 22.5508 14.3943C22.5519 14.5306 22.6006 14.6606 22.6886 14.7654L23.7819 15.4446C23.8814 15.5064 23.9721 15.5782 24.0575 15.6526ZM22.358 17.7348C22.4549 17.7945 22.5566 17.8218 22.6609 17.8218C22.8559 17.8208 23.0424 17.7264 23.1519 17.5498C23.2118 17.4529 23.2384 17.3501 23.239 17.2464C23.2385 17.1112 23.1897 16.9812 23.1022 16.8774L22.0084 16.1967C21.9094 16.1353 21.8197 16.0641 21.7343 15.9896L21.6945 15.9655C21.5975 15.9053 21.4953 15.8785 21.3921 15.8785C21.1961 15.8796 21.0111 15.9739 20.9011 16.151C20.8413 16.248 20.8146 16.3491 20.814 16.4535C20.8151 16.6478 20.9089 16.8344 21.0871 16.945L22.358 17.7348ZM18.8995 18.8102L20.1709 19.6006C20.2674 19.6604 20.3691 19.6876 20.4739 19.6876C20.6683 19.6865 20.8549 19.5922 20.9644 19.4156C21.0242 19.3181 21.0508 19.2164 21.0514 19.1121C21.0498 18.9167 20.956 18.7317 20.7799 18.6216L19.5069 17.8307C19.41 17.7705 19.3083 17.7443 19.2046 17.7443C19.0091 17.7448 18.8235 17.8391 18.7134 18.0163C18.6538 18.1133 18.627 18.215 18.6264 18.3192C18.6275 18.5136 18.7213 18.6991 18.8995 18.8102ZM16.9284 20.0994C16.8881 20.1639 16.8708 20.231 16.8703 20.3012C16.8713 20.4317 16.9337 20.5559 17.0537 20.6308L18.1454 21.309C18.2104 21.3498 18.2775 21.3671 18.3483 21.3671C18.4792 21.3666 18.6034 21.3032 18.6774 21.1848C18.7177 21.1192 18.735 21.0521 18.7356 20.982C18.734 20.8504 18.6716 20.7272 18.5537 20.6539H18.5532L17.4605 19.9747C17.3939 19.9333 17.3273 19.9159 17.2576 19.9159C17.1261 19.917 17.0029 19.9794 16.9291 20.0983L16.2729 19.6916L16.9284 20.0994ZM8.43878 15.3067C8.49486 15.4152 8.62273 15.5567 8.78464 15.6557C8.94661 15.7559 9.13475 15.8145 9.31502 15.814C9.37902 15.814 9.44084 15.825 9.5011 15.8407C9.61119 15.8166 9.72127 15.7831 9.82968 15.7401C10.1656 15.6091 10.4795 15.3968 10.7012 15.2176C10.8123 15.128 10.9004 15.0473 10.9591 14.9912L11.0241 14.9267L11.0382 14.9121L11.0404 14.91H11.0408C11.2568 14.6752 11.6226 14.6595 11.8579 14.8754C12.0932 15.0914 12.1095 15.4571 11.893 15.694C11.8736 15.7139 11.5827 16.0315 11.1063 16.3586C10.8673 16.5221 10.5817 16.6888 10.2531 16.8177C10.1771 16.8476 10.098 16.8753 10.0167 16.9005C9.99417 16.9513 9.96535 16.9996 9.93132 17.0451L9.93287 17.0462C9.92868 17.0493 9.89723 17.149 9.89987 17.2768C9.89613 17.4901 9.97374 17.7695 10.0854 17.9235C10.1398 18.0021 10.1954 18.0519 10.2493 18.0828C10.3044 18.1132 10.3599 18.1332 10.4642 18.1347L10.5015 18.1342C10.5235 18.1332 10.5444 18.1368 10.5659 18.1379C10.567 18.1379 10.5675 18.1379 10.5675 18.1379C11.0696 18.14 11.537 17.9246 11.8819 17.6888C12.0538 17.5724 12.1916 17.454 12.2844 17.367C12.33 17.324 12.3651 17.2884 12.3866 17.2664L12.4091 17.2423L12.4128 17.2376H12.4133C12.6224 16.9976 12.9866 16.9713 13.2282 17.1805C13.4704 17.3901 13.4965 17.7554 13.2869 17.9975L13.2875 17.997C13.2649 18.0222 12.9976 18.3303 12.5327 18.6469C12.2267 18.8538 11.8273 19.0682 11.353 19.1919C11.3583 19.2055 11.3614 19.2191 11.3677 19.2328C11.4285 19.3701 11.5155 19.5116 11.7524 19.6499C11.9123 19.7412 12.0265 19.7888 12.1067 19.8129C12.1874 19.837 12.2324 19.8418 12.2901 19.8423C12.365 19.8434 12.4777 19.8265 12.6654 19.7883C12.6994 19.781 12.7334 19.7788 12.7675 19.7768C12.7802 19.7715 12.7921 19.7668 12.8058 19.76C12.9976 19.6698 13.2314 19.5068 13.4038 19.368C13.4903 19.2993 13.5636 19.2364 13.614 19.1919L13.6706 19.1405L13.6837 19.1279L13.6863 19.1259C13.9174 18.9047 14.2843 18.9131 14.5054 19.1442C14.7261 19.3753 14.7177 19.7422 14.4865 19.9628C14.4745 19.9738 14.2308 20.2076 13.8891 20.4528C13.8284 20.4958 13.7613 20.5393 13.6942 20.5823C13.7885 20.7327 13.887 20.8359 13.9834 20.9046C14.1375 21.0105 14.3052 21.0608 14.5212 21.0618C14.7145 21.0624 14.942 21.0147 15.1694 20.9182C15.2449 20.8868 15.3188 20.8423 15.3932 20.8009C15.3497 20.6384 15.3256 20.4702 15.3261 20.3014C15.3256 19.9539 15.421 19.5986 15.617 19.2836C15.9498 18.7485 16.5048 18.434 17.086 18.3827C17.086 18.3617 17.0824 18.3408 17.0824 18.3192C17.0819 17.9383 17.1867 17.5473 17.4016 17.2014V17.2025C17.803 16.5557 18.498 16.1983 19.2045 16.1998C19.2317 16.1998 19.2595 16.2045 19.2867 16.2056C19.3223 15.9053 19.4209 15.6076 19.5896 15.3362H19.5891C19.9167 14.8084 20.4418 14.4773 21.0083 14.3734C21.0119 13.9987 21.1152 13.6166 21.3264 13.277H21.3259C21.7268 12.6319 22.4223 12.2739 23.1288 12.275C23.5109 12.275 23.9002 12.3798 24.2467 12.5946L24.9903 13.0569C25.0082 13.016 25.0307 12.9762 25.0469 12.9353C25.1764 12.6256 25.2576 12.32 25.2665 12.1094L25.2838 11.7834L27.7716 9.61162L23.0549 4.72659C22.8138 4.9242 22.5664 5.12021 22.3127 5.30364C21.8924 5.60657 21.4758 5.87386 21.0502 6.0531C20.7771 6.16577 20.5109 6.19354 20.2666 6.19406C19.8757 6.19251 19.5172 6.12542 19.1435 6.07089C19.1194 6.0667 19.0943 6.06464 19.0697 6.0609C19.5832 6.50163 20.0314 6.97858 20.4103 7.42254C20.7295 7.79727 20.9988 8.15047 21.2122 8.43871C21.4228 8.72539 21.5853 8.95652 21.6566 9.04772C22.0077 9.50469 22.1586 10.0513 22.1618 10.599C22.1602 11.1084 22.025 11.6387 21.6738 12.0869C21.4988 12.3085 21.2661 12.5025 20.9884 12.6345C20.7111 12.7676 20.3935 12.8358 20.0628 12.8358C19.6525 12.8347 19.2222 12.7351 18.7668 12.5438C17.3371 11.939 15.8633 11.536 14.7544 11.2876C14.1999 11.1639 13.7361 11.078 13.4128 11.024C13.3519 11.014 13.3011 11.0056 13.2508 10.9973L8.39934 15.1795L8.39728 15.1806L8.39566 15.1832C8.39631 15.1982 8.40372 15.2417 8.43878 15.3067ZM7.87746 11.7833L7.89428 12.1093C7.90318 12.2958 7.9666 12.5589 8.07301 12.8315C8.12702 12.974 8.19302 13.1177 8.26218 13.2591L12.5109 9.5968C12.676 9.45429 12.8961 9.38823 13.1125 9.41549C13.1502 9.42284 16.2665 9.81381 19.3675 11.1209C19.6762 11.2514 19.9078 11.2917 20.063 11.2907C20.1892 11.2907 20.2663 11.2681 20.3234 11.2409C20.4062 11.2005 20.4655 11.1434 20.5241 11.0338C20.5802 10.926 20.6185 10.7666 20.6179 10.5989C20.6211 10.3579 20.5351 10.1126 20.4387 9.99628C20.3187 9.84114 20.172 9.62941 19.9696 9.35581C19.6694 8.94911 19.2616 8.42291 18.7753 7.9109C18.2901 7.39888 17.7256 6.90311 17.1339 6.55506C16.3336 6.08501 15.6517 5.96706 15.0055 5.96493C14.6078 5.96441 14.2263 6.01417 13.8541 6.07025C13.481 6.12529 13.1215 6.19129 12.7316 6.19342C12.4879 6.1929 12.2232 6.16512 11.9512 6.054L11.9475 6.05297C11.522 5.87373 11.1053 5.60644 10.685 5.30351C10.4329 5.12111 10.1845 4.92408 9.94447 4.72704L5.30159 9.5355L7.87746 11.7833Z" fill="#FFD74A"/>
</svg>
