<svg width="89" height="89" viewBox="0 0 89 89" fill="none" xmlns="http://www.w3.org/2000/svg">
<path d="M23.8439 21.7568L64.964 62.877C65.7443 63.6572 66.1826 64.7155 66.1826 65.819C66.1826 66.9224 65.7443 67.9807 64.964 68.761C64.1836 69.5409 63.1254 69.9791 62.022 69.9791C60.9186 69.9791 59.8604 69.5409 59.08 68.761L49.0352 58.5432C48.3778 57.8757 48.0091 56.9766 48.0084 56.0398V55.4226C48.0085 54.9496 47.9146 54.4812 47.7322 54.0448C47.5498 53.6083 47.2825 53.2124 46.9459 52.8801L45.649 51.6826C45.2087 51.2763 44.6733 50.9874 44.0921 50.8423C43.5109 50.6972 42.9025 50.7006 42.323 50.8522C41.4091 51.0907 40.4487 51.0861 39.5372 50.8388C38.6256 50.5916 37.7946 50.1102 37.1265 49.4426L27.5917 39.9067C21.9354 34.2504 19.8539 25.7089 23.8439 21.7568Z" stroke="#DCDCDC" stroke-width="3" stroke-linejoin="round"/>
<path d="M62.0715 20L53.4497 28.6218C52.7862 29.2851 52.26 30.0726 51.9009 30.9393C51.5418 31.8061 51.357 32.7351 51.357 33.6732V35.3317C51.3571 35.5664 51.3109 35.7987 51.221 36.0155C51.1312 36.2323 50.9996 36.4293 50.8336 36.5951L49.5713 37.8574" stroke="#DCDCDC" stroke-width="3" stroke-linecap="round" stroke-linejoin="round"/>
<path d="M53.1426 41.4289L54.4049 40.1666C54.5707 40.0006 54.7677 39.869 54.9845 39.7792C55.2013 39.6893 55.4336 39.6431 55.6683 39.6432H57.3268C58.265 39.6432 59.1939 39.4584 60.0607 39.0993C60.9274 38.7402 61.7149 38.214 62.3782 37.5505L71 28.9287" stroke="#DCDCDC" stroke-width="3" stroke-linecap="round" stroke-linejoin="round"/>
<path d="M66.5352 24.4644L57.6064 33.3931" stroke="#DCDCDC" stroke-width="3" stroke-linecap="round" stroke-linejoin="round"/>
<path d="M39.7494 57.501L28.6197 68.6931C27.7825 69.5301 26.6472 70.0002 25.4634 70.0002C24.2796 70.0002 23.1443 69.5301 22.3071 68.6931C21.4702 67.8559 21 66.7206 21 65.5368C21 64.353 21.4702 63.2177 22.3071 62.3805L31.7135 53.0366" stroke="#DCDCDC" stroke-width="3" stroke-linecap="round" stroke-linejoin="round"/>
</svg>
