<svg width="32" height="32" viewBox="0 0 32 32" fill="none" xmlns="http://www.w3.org/2000/svg">
<path fill-rule="evenodd" clip-rule="evenodd" d="M21.1556 4.44444C21.1556 1.77778 18.5209 0 16.4622 0C15.0293 0 14.9173 1.088 14.6969 3.23556C14.5991 4.17778 14.4818 5.32267 14.2222 6.66667C13.536 10.2258 11.1644 14.7733 8.896 16.1333V26.6667C8.88889 30.6667 10.2222 32 16 32H22.7076C26.576 32 27.5129 29.4524 27.8613 28.5084L27.8844 28.4444C28.0871 27.9004 28.5209 27.472 29.0187 26.9867C29.5698 26.4427 30.1991 25.8258 30.6667 24.8889C31.2196 23.7813 31.1467 22.7964 31.0809 21.92C31.04 21.3884 31.0027 20.8978 31.1111 20.4444C31.2249 19.9644 31.3707 19.6 31.5111 19.2516C31.7653 18.6187 32 18.032 32 16.8889C32 14.2222 30.6702 12.448 27.8844 12.448H20.4444C20.4444 12.448 21.1556 7.11111 21.1556 4.44444ZM2.66667 14.2222C1.95942 14.2222 1.28115 14.5032 0.781048 15.0033C0.280951 15.5034 0 16.1816 0 16.8889V29.3333C1.49041e-08 30.0406 0.280951 30.7189 0.781048 31.219C1.28115 31.719 1.95942 32 2.66667 32C3.37391 32 4.05219 31.719 4.55229 31.219C5.05238 30.7189 5.33333 30.0406 5.33333 29.3333V16.8889C5.33333 16.1816 5.05238 15.5034 4.55229 15.0033C4.05219 14.5032 3.37391 14.2222 2.66667 14.2222Z" fill="white"/>
</svg>
