<svg width="25" height="19" viewBox="0 0 25 19" fill="none" xmlns="http://www.w3.org/2000/svg">
<path d="M1.57969 4.73914C0.708878 4.73914 0 5.44721 0 6.31883V12.6377C0 13.5093 0.708878 14.2173 1.57969 14.2173C2.45056 14.2173 3.15939 13.5093 3.15939 12.6377V6.31883C3.15944 5.44721 2.45056 4.73914 1.57969 4.73914Z" fill="#FFD74A"/>
<path d="M22.6425 0C21.7709 0 21.0628 0.708073 21.0628 1.57969V17.3768C21.0628 18.2484 21.7709 18.9565 22.6425 18.9565C23.5141 18.9565 24.2222 18.2484 24.2222 17.3768V1.57974C24.2222 0.708073 23.5141 0 22.6425 0Z" fill="#FFD74A"/>
<path d="M4.73913 6.04783V12.9087L6.31882 13.3826V14.7805C6.31882 15.8342 6.99761 16.7459 8.00804 17.0482L12.7472 18.4706C13.4474 18.6849 14.2215 18.5639 14.8421 18.1019C15.4418 17.6564 15.7867 16.9717 15.7942 16.2253L19.483 17.1739V1.78259L4.73913 6.04783ZM14.2174 16.2012C14.2174 16.7137 13.7301 17.1114 13.2007 16.9587L8.46159 15.5363C8.12527 15.4345 7.89852 15.1306 7.89852 14.7804V13.8564L14.2173 15.7521V16.2012H14.2174Z" fill="#FFD74A"/>
</svg>
