<svg width="32" height="32" viewBox="0 0 32 32" fill="none" xmlns="http://www.w3.org/2000/svg">
<path fill-rule="evenodd" clip-rule="evenodd" d="M10.8444 27.5556C10.8444 30.2222 13.4791 32 15.5378 32C16.9707 32 17.0827 30.912 17.3031 28.7644C17.4009 27.8222 17.5182 26.6773 17.7778 25.3333C18.464 21.7742 20.8356 17.2267 23.104 15.8667L23.104 5.33333C23.1111 1.33333 21.7778 0 16 0H9.29244C5.424 0 4.48711 2.54756 4.13866 3.49156L4.11556 3.55556C3.91289 4.09956 3.47911 4.528 2.98133 5.01333C2.43022 5.55733 1.80089 6.17422 1.33333 7.11111C0.780445 8.21867 0.853333 9.20356 0.919111 10.08C0.960001 10.6116 0.997334 11.1022 0.888889 11.5556C0.77511 12.0356 0.629332 12.4 0.488888 12.7484C0.234665 13.3813 0 13.968 0 15.1111C0 17.7778 1.32978 19.552 4.11556 19.552L11.5556 19.552C11.5556 19.552 10.8444 24.8889 10.8444 27.5556ZM29.3333 17.7778C30.0406 17.7778 30.7189 17.4968 31.219 16.9967C31.719 16.4966 32 15.8184 32 15.1111L32 2.66667C32 1.95942 31.719 1.28115 31.219 0.78105C30.7189 0.280952 30.0406 0 29.3333 0C28.6261 0 27.9478 0.280952 27.4477 0.78105C26.9476 1.28115 26.6667 1.95942 26.6667 2.66667L26.6667 15.1111C26.6667 15.8184 26.9476 16.4966 27.4477 16.9967C27.9478 17.4968 28.6261 17.7778 29.3333 17.7778Z" fill="white"/>
</svg>
