<svg width="30" height="32" viewBox="0 0 30 32" fill="none" xmlns="http://www.w3.org/2000/svg">
<path fill-rule="evenodd" clip-rule="evenodd" d="M6 0.25C2.90673 0.25 0.375 2.78172 0.375 5.875V30.625C0.375089 30.8664 0.452821 31.1014 0.596714 31.2952C0.740606 31.4891 0.943027 31.6315 1.17408 31.7014C1.40512 31.7714 1.65254 31.7652 1.87979 31.6837C2.10704 31.6022 2.30205 31.4498 2.43604 31.249L3.75 29.2781L5.06396 31.249C5.16672 31.4031 5.30591 31.5294 5.4692 31.6168C5.63248 31.7042 5.81481 31.7499 6 31.7499C6.18519 31.7499 6.36752 31.7042 6.5308 31.6168C6.69409 31.5294 6.83328 31.4031 6.93604 31.249L8.25 29.2781L9.56396 31.249C9.66672 31.4031 9.80591 31.5294 9.9692 31.6168C10.1325 31.7042 10.3148 31.7499 10.5 31.7499C10.6852 31.7499 10.8675 31.7042 11.0308 31.6168C11.1941 31.5294 11.3333 31.4031 11.436 31.249L12.75 29.2781L14.064 31.249C14.1667 31.4031 14.3059 31.5294 14.4692 31.6168C14.6325 31.7042 14.8148 31.7499 15 31.7499C15.1852 31.7499 15.3675 31.7042 15.5308 31.6168C15.6941 31.5294 15.8333 31.4031 15.936 31.249L17.25 29.2781L18.564 31.249C18.6979 31.4498 18.893 31.6022 19.1202 31.6837C19.3475 31.7652 19.5949 31.7714 19.8259 31.7014C20.057 31.6315 20.2594 31.4891 20.4033 31.2952C20.5472 31.1014 20.6249 30.8664 20.625 30.625V17.125H28.5C28.7984 17.125 29.0845 17.0064 29.2955 16.7955C29.5064 16.5845 29.625 16.2984 29.625 16V5.875C29.625 2.78172 27.0933 0.25 24 0.25H6ZM6 2.5H19.5088C18.7979 3.44197 18.375 4.61116 18.375 5.875V7V16V26.9094L18.186 26.626C18.0833 26.4719 17.9441 26.3456 17.7808 26.2582C17.6175 26.1708 17.4352 26.1251 17.25 26.1251C17.0648 26.1251 16.8825 26.1708 16.7192 26.2582C16.5559 26.3456 16.4167 26.4719 16.314 26.626L15 28.5969L13.686 26.626C13.5833 26.4719 13.4441 26.3456 13.2808 26.2582C13.1175 26.1708 12.9352 26.1251 12.75 26.1251C12.5648 26.1251 12.3825 26.1708 12.2192 26.2582C12.0559 26.3456 11.9167 26.4719 11.814 26.626L10.5 28.5969L9.18604 26.626C9.08328 26.4719 8.94409 26.3456 8.7808 26.2582C8.61752 26.1708 8.43519 26.1251 8.25 26.1251C8.06481 26.1251 7.88248 26.1708 7.7192 26.2582C7.55591 26.3456 7.41672 26.4719 7.31396 26.626L6 28.5969L4.68604 26.626C4.58328 26.4719 4.44409 26.3456 4.2808 26.2582C4.11752 26.1708 3.93519 26.1251 3.75 26.1251C3.56481 26.1251 3.38248 26.1708 3.2192 26.2582C3.05591 26.3456 2.91672 26.4719 2.81396 26.626L2.625 26.9094V5.875C2.625 3.99771 4.12272 2.5 6 2.5ZM24 2.5C25.8773 2.5 27.375 3.99771 27.375 5.875V14.875H20.625V7V5.875C20.625 3.99771 22.1227 2.5 24 2.5Z" fill="#FFD74A"/>
<path fill-rule="evenodd" clip-rule="evenodd" d="M6 13.75C5.70163 13.75 5.41548 13.8685 5.2045 14.0795C4.99353 14.2905 4.875 14.5766 4.875 14.875C4.875 15.1734 4.99353 15.4595 5.2045 15.6705C5.41548 15.8815 5.70163 16 6 16H10.5C10.7984 16 11.0845 15.8815 11.2955 15.6705C11.5065 15.4595 11.625 15.1734 11.625 14.875C11.625 14.5766 11.5065 14.2905 11.2955 14.0795C11.0845 13.8685 10.7984 13.75 10.5 13.75H6Z" fill="#FFD74A"/>
<path fill-rule="evenodd" clip-rule="evenodd" d="M6 17.125C5.70163 17.125 5.41548 17.2435 5.2045 17.4545C4.99353 17.6655 4.875 17.9516 4.875 18.25C4.875 18.5484 4.99353 18.8345 5.2045 19.0455C5.41548 19.2565 5.70163 19.375 6 19.375H15C15.2984 19.375 15.5845 19.2565 15.7955 19.0455C16.0065 18.8345 16.125 18.5484 16.125 18.25C16.125 17.9516 16.0065 17.6655 15.7955 17.4545C15.5845 17.2435 15.2984 17.125 15 17.125H6Z" fill="#FFD74A"/>
<path fill-rule="evenodd" clip-rule="evenodd" d="M6 20.5C5.70163 20.5 5.41548 20.6185 5.2045 20.8295C4.99353 21.0405 4.875 21.3266 4.875 21.625C4.875 21.9234 4.99353 22.2095 5.2045 22.4205C5.41548 22.6315 5.70163 22.75 6 22.75H15C15.2984 22.75 15.5845 22.6315 15.7955 22.4205C16.0065 22.2095 16.125 21.9234 16.125 21.625C16.125 21.3266 16.0065 21.0405 15.7955 20.8295C15.5845 20.6185 15.2984 20.5 15 20.5H6Z" fill="#FFD74A"/>
<path fill-rule="evenodd" clip-rule="evenodd" d="M6 5.875C5.70164 5.87503 5.41551 5.99357 5.20454 6.20454C4.99357 6.41551 4.87503 6.70164 4.875 7V11.5C4.87503 11.7984 4.99357 12.0845 5.20454 12.2955C5.41551 12.5064 5.70164 12.625 6 12.625H10.5C10.7984 12.625 11.0845 12.5064 11.2955 12.2955C11.5064 12.0845 11.625 11.7984 11.625 11.5V7C11.625 6.70164 11.5064 6.41551 11.2955 6.20454C11.0845 5.99357 10.7984 5.87503 10.5 5.875H6ZM7.125 8.125H9.375V10.375H7.125V8.125Z" fill="#FFD74A"/>
</svg>
